<svg id="kity_svg_6" xmlns="http://www.w3.org/2000/svg" xmlns:xlink="http://www.w3.org/1999/xlink" version="1.1" width="1458" height="1713" style="display: inline; background: rgb(251, 251, 251);" viewBox="0 0 1458 1713"><defs id="kity_defs_7"><linearGradient id="kity_linearGradient_17" x1="0" y1="0" x2="0" y2="1"><stop id="kity_stop_18" offset="0" stop-color="rgb(255, 255, 255)"></stop><stop id="kity_stop_19" offset="1" stop-color="rgb(204, 204, 204)"></stop></linearGradient><marker id="kity_marker_2" orient="auto" refX="6" refY="0" viewBox="-7 -7 14 14" markerWidth="7" markerHeight="7" markerUnits="userSpaceOnUse"><path id="kity_path_3" fill="rgb(115, 161, 191)" stroke="none" d="M6,0A6,6,0,1,1,-6,0A6,6,0,1,1,6,0"></path></marker></defs><g id="kity_g_8"><g id="minder1" text-rendering="optimize-speed"><g id="minder_connect_group1"><path id="kity_path_31" fill="none" stroke="rgb(115, 161, 191)" stroke-width="1" d="M519.5,933A222,480.5,0,0,1,741.5,452.5"></path><path id="kity_path_33" fill="none" stroke="rgb(115, 161, 191)" stroke-width="1" d="M848.5,452.5C863.5,452.5,863.5,107.5,878.5,107.5L989.5,107.5"></path><path id="kity_path_35" fill="none" stroke="rgb(115, 161, 191)" stroke-width="1" d="M989.5,107.5C1004.5,107.5,1004.5,50.5,1019.5,50.5L1118.5,50.5"></path><path id="kity_path_37" fill="none" stroke="rgb(115, 161, 191)" stroke-width="1" d="M989.5,107.5C1004.5,107.5,1004.5,107.5,1019.5,107.5L1130.5,107.5"></path><path id="kity_path_39" fill="none" stroke="rgb(115, 161, 191)" stroke-width="1" d="M989.5,107.5C1004.5,107.5,1004.5,164.5,1019.5,164.5L1130.5,164.5"></path><path id="kity_path_41" fill="none" stroke="rgb(115, 161, 191)" stroke-width="1" d="M848.5,452.5C863.5,452.5,863.5,221.5,878.5,221.5L1020.5,221.5"></path><path id="kity_path_43" fill="none" stroke="rgb(115, 161, 191)" stroke-width="1" d="M848.5,452.5C863.5,452.5,863.5,376.5,878.5,376.5L965.5,376.5"></path><path id="kity_path_45" fill="none" stroke="rgb(115, 161, 191)" stroke-width="1" d="M965.5,376.5C980.5,376.5,980.5,306.5,995.5,306.5L1070.5,306.5"></path><path id="kity_path_47" fill="none" stroke="rgb(115, 161, 191)" stroke-width="1" d="M1070.5,306.5C1085.5,306.5,1085.5,304.5,1100.5,304.5L1178.5,304.5"></path><path id="kity_path_49" fill="none" stroke="rgb(115, 161, 191)" stroke-width="1" d="M1178.5,304.5C1193.5,304.5,1193.5,334.5,1208.5,334.5L1438.5,334.5"></path><path id="kity_path_51" fill="none" stroke="rgb(115, 161, 191)" stroke-width="1" d="M965.5,376.5C980.5,376.5,980.5,390.5,995.5,390.5L1070.5,390.5"></path><path id="kity_path_53" fill="none" stroke="rgb(115, 161, 191)" stroke-width="1" d="M1070.5,390.5C1085.5,390.5,1085.5,390.5,1100.5,390.5L1199.5,390.5"></path><path id="kity_path_55" fill="none" stroke="rgb(115, 161, 191)" stroke-width="1" d="M965.5,376.5C980.5,376.5,980.5,447.5,995.5,447.5L1094.5,447.5"></path><path id="kity_path_57" fill="none" stroke="rgb(115, 161, 191)" stroke-width="1" d="M1094.5,447.5C1109.5,447.5,1109.5,447.5,1124.5,447.5L1223.5,447.5"></path><path id="kity_path_59" fill="none" stroke="rgb(115, 161, 191)" stroke-width="1" d="M848.5,452.5C863.5,452.5,863.5,503.5,878.5,503.5L965.5,503.5"></path><path id="kity_path_61" fill="none" stroke="rgb(115, 161, 191)" stroke-width="1" d="M848.5,452.5C863.5,452.5,863.5,560.5,878.5,560.5L977.5,560.5"></path><path id="kity_path_63" fill="none" stroke="rgb(115, 161, 191)" stroke-width="1" d="M848.5,452.5C863.5,452.5,863.5,617.5,878.5,617.5L977.5,617.5"></path><path id="kity_path_65" fill="none" stroke="rgb(115, 161, 191)" stroke-width="1" d="M848.5,452.5C863.5,452.5,863.5,669.5,878.5,669.5L956.5,669.5"></path><path id="kity_path_67" fill="none" stroke="rgb(115, 161, 191)" stroke-width="1" d="M848.5,452.5C863.5,452.5,863.5,721.5,878.5,721.5L968.5,721.5"></path><path id="kity_path_69" fill="none" stroke="rgb(115, 161, 191)" stroke-width="1" d="M848.5,452.5C863.5,452.5,863.5,778.5,878.5,778.5L1006.5,778.5"></path><path id="kity_path_71" fill="none" stroke="rgb(115, 161, 191)" stroke-width="1" d="M848.5,452.5C863.5,452.5,863.5,830.5,878.5,830.5L1005.5,830.5"></path><path id="kity_path_73" fill="none" stroke="rgb(115, 161, 191)" stroke-width="1" d="M519.5,933A222,480.5,0,0,0,741.5,1413.5"></path><path id="kity_path_75" fill="none" stroke="rgb(115, 161, 191)" stroke-width="1" d="M839.5,1413.5C854.5,1413.5,854.5,1166.5,869.5,1166.5L992.5,1166.5"></path><path id="kity_path_77" fill="none" stroke="rgb(115, 161, 191)" stroke-width="1" d="M992.5,1166.5C1007.5,1166.5,1007.5,1038.5,1022.5,1038.5L1109.5,1038.5"></path><path id="kity_path_79" fill="none" stroke="rgb(115, 161, 191)" stroke-width="1" d="M1109.5,1038.5C1124.5,1038.5,1124.5,897.5,1139.5,897.5L1220.5,897.5"></path><path id="kity_path_81" fill="none" stroke="rgb(115, 161, 191)" stroke-width="1" d="M1109.5,1038.5C1124.5,1038.5,1124.5,954.5,1139.5,954.5L1234.5,954.5"></path><path id="kity_path_83" fill="none" stroke="rgb(115, 161, 191)" stroke-width="1" d="M1109.5,1038.5C1124.5,1038.5,1124.5,1180.5,1139.5,1180.5L1369.5,1180.5"></path><path id="kity_path_85" fill="none" stroke="rgb(115, 161, 191)" stroke-width="1" d="M992.5,1166.5C1007.5,1166.5,1007.5,1237.5,1022.5,1237.5L1109.5,1237.5"></path><path id="kity_path_87" fill="none" stroke="rgb(115, 161, 191)" stroke-width="1" d="M992.5,1166.5C1007.5,1166.5,1007.5,1294.5,1022.5,1294.5L1109.5,1294.5"></path><path id="kity_path_89" fill="none" stroke="rgb(115, 161, 191)" stroke-width="1" d="M839.5,1413.5C854.5,1413.5,854.5,1351.5,869.5,1351.5L1010.5,1351.5"></path><path id="kity_path_91" fill="none" stroke="rgb(115, 161, 191)" stroke-width="1" d="M839.5,1413.5C854.5,1413.5,854.5,1496.5,869.5,1496.5L1022.5,1496.5"></path><path id="kity_path_93" fill="none" stroke="rgb(115, 161, 191)" stroke-width="1" d="M1022.5,1496.5C1037.5,1496.5,1037.5,1584.5,1052.5,1584.5L1282.5,1584.5"></path><path id="kity_path_95" fill="none" stroke="rgb(115, 161, 191)" stroke-width="1" d="M839.5,1413.5C854.5,1413.5,854.5,1641.5,869.5,1641.5L1064.5,1641.5"></path><path id="kity_path_97" fill="none" stroke="rgb(115, 161, 191)" stroke-width="1" d="M839.5,1413.5C854.5,1413.5,854.5,1693.5,869.5,1693.5L976.5,1693.5"></path><path id="kity_path_99" fill="none" stroke="rgb(115, 161, 191)" stroke-width="1" d="M519.5,933A222,0.5,0,0,1,297.5,933.5"></path><path id="kity_path_101" fill="none" stroke="rgb(115, 161, 191)" stroke-width="1" d="M197.5,933.5C182.5,933.5,182.5,893.5,167.5,893.5L20.5,893.5"></path><path id="kity_path_103" fill="none" stroke="rgb(115, 161, 191)" stroke-width="1" d="M197.5,933.5C182.5,933.5,182.5,950.5,167.5,950.5L68.5,950.5"></path><path id="kity_path_105" fill="none" stroke="rgb(115, 161, 191)" stroke-width="1" d="M197.5,933.5C182.5,933.5,182.5,1007.5,167.5,1007.5L80.5,1007.5"></path></g><g id="minder_node1"><path id="node_outline1" fill="rgb(115, 161, 191)" stroke="rgb(115, 161, 191)" d="M420.5,912.5h198a5,5,0,0,1,5,5v31a5,5,0,0,1,-5,5h-198a5,5,0,0,1,-5,-5v-31a5,5,0,0,1,5,-5z" stroke-width="3"></path><g id="node_text1" fill="white"><text id="kity_text_22" text-rendering="inherit" font-size="16" dy=".8em" y="924.5" x="439.5">Java虚拟机的构成</text></g><g id="kity_g_263" style="cursor: pointer;"><path id="kity_path_264" fill="none" stroke="none" d="M586,924h12a2,2,0,0,1,2,2v13a2,2,0,0,1,-2,2h-12a2,2,0,0,1,-2,-2v-13a2,2,0,0,1,2,-2z"></path><path id="kity_path_265" fill="white" stroke="none" d="M595,935H589V934h6L595,935L595,935zM595,933H589V932h6V933zM595,931H589V930h6V931zM594.5,937H588V928h8v7.5M595,938l2,-2V927H587v11"></path></g></g><g id="kity_g_12"><path id="kity_path_13" fill="none" stroke="none" d="M439.5,932.5h0v0h0z"></path></g><g id="kity_g_14"><path id="kity_path_15" fill="none" stroke="none" d="M439.5,932.5h0v0h0z"></path><path id="kity_path_16" fill="none" stroke="none"></path></g><g id="minder_node2"><g id="node_expander21" style="cursor: pointer;"><path id="kity_path_368" fill="white" stroke="gray" d="M742.5,452.5A6,6,0,1,1,730.5,452.5A6,6,0,1,1,742.5,452.5"></path><path id="kity_path_369" fill="none" stroke="gray" d="M732,452.5L741,452.5"></path></g><path id="node_outline22" fill="rgb(238, 243, 246)" stroke="rgb(115, 161, 191)" d="M746.5,439.5h99a3,3,0,0,1,3,3v20a3,3,0,0,1,-3,3h-99a3,3,0,0,1,-3,-3v-20a3,3,0,0,1,3,-3z" stroke-width="1"></path><g id="node_text22" fill="black"><text id="kity_text_147" text-rendering="inherit" font-size="14" dy=".8em" y="445.5" x="763.5">VM运行时</text></g></g><g id="minder_node3"><g id="node_expander4" style="cursor: pointer;"><path id="kity_path_317" fill="white" stroke="gray" d="M888.5,91A6,6,0,1,1,876.5,91A6,6,0,1,1,888.5,91"></path><path id="kity_path_318" fill="none" stroke="gray" d="M878,91L887,91"></path></g><path id="node_outline5" fill="none" stroke="none" d="M893.5,77.5h91a5,5,0,0,1,5,5v17a5,5,0,0,1,-5,5h-91a5,5,0,0,1,-5,-5v-17a5,5,0,0,1,5,-5z"></path><g id="node_text5" fill="black"><text id="kity_text_113" text-rendering="inherit" font-size="12" dy=".8em" y="84.5" x="898.5">命令行解析</text></g><g id="kity_g_191" style="cursor: pointer;"><path id="kity_path_192" fill="none" stroke="none" d="M966,82h12a2,2,0,0,1,2,2v13a2,2,0,0,1,-2,2h-12a2,2,0,0,1,-2,-2v-13a2,2,0,0,1,2,-2z"></path><path id="kity_path_193" fill="black" stroke="none" d="M975,93H969V92h6L975,93L975,93zM975,91H969V90h6V91zM975,89H969V88h6V89zM974.5,95H968V86h8v7.5M975,96l2,-2V85H967v11"></path></g></g><g id="minder_node4"><g id="node_expander1" display="none" style="cursor: pointer;"><path id="kity_path_308" fill="white" stroke="gray" d="M1029.5,34A6,6,0,1,1,1017.5,34A6,6,0,1,1,1029.5,34"></path><path id="kity_path_309" fill="none" stroke="gray"></path></g><path id="node_outline2" fill="none" stroke="none" d="M1034.5,20.5h79a5,5,0,0,1,5,5v17a5,5,0,0,1,-5,5h-79a5,5,0,0,1,-5,-5v-17a5,5,0,0,1,5,-5z"></path><g id="node_text2" fill="black"><text id="kity_text_107" text-rendering="inherit" font-size="12" dy=".8em" y="27.5" x="1039.5">标注选项</text></g><g id="kity_g_182" style="cursor: pointer;"><path id="kity_path_183" fill="none" stroke="none" d="M1095,25h12a2,2,0,0,1,2,2v13a2,2,0,0,1,-2,2h-12a2,2,0,0,1,-2,-2v-13a2,2,0,0,1,2,-2z"></path><path id="kity_path_184" fill="black" stroke="none" d="M1104,36H1098V35h6L1104,36L1104,36zM1104,34H1098V33h6V34zM1104,32H1098V31h6V32zM1103.5,38H1097V29h8v7.5M1104,39l2,-2V28H1096v11"></path></g></g><g id="minder_node5"><g id="node_expander2" display="none" style="cursor: pointer;"><path id="kity_path_311" fill="white" stroke="gray" d="M1029.5,91A6,6,0,1,1,1017.5,91A6,6,0,1,1,1029.5,91"></path><path id="kity_path_312" fill="none" stroke="gray"></path></g><path id="node_outline3" fill="none" stroke="none" d="M1034.5,77.5h91a5,5,0,0,1,5,5v17a5,5,0,0,1,-5,5h-91a5,5,0,0,1,-5,-5v-17a5,5,0,0,1,5,-5z"></path><g id="node_text3" fill="black"><text id="kity_text_109" text-rendering="inherit" font-size="12" dy=".8em" y="84.5" x="1039.5">非标准选项</text></g><g id="kity_g_185" style="cursor: pointer;"><path id="kity_path_186" fill="none" stroke="none" d="M1107,82h12a2,2,0,0,1,2,2v13a2,2,0,0,1,-2,2h-12a2,2,0,0,1,-2,-2v-13a2,2,0,0,1,2,-2z"></path><path id="kity_path_187" fill="black" stroke="none" d="M1116,93H1110V92h6L1116,93L1116,93zM1116,91H1110V90h6V91zM1116,89H1110V88h6V89zM1115.5,95H1109V86h8v7.5M1116,96l2,-2V85H1108v11"></path></g></g><g id="minder_node6"><g id="node_expander3" display="none" style="cursor: pointer;"><path id="kity_path_314" fill="white" stroke="gray" d="M1029.5,148A6,6,0,1,1,1017.5,148A6,6,0,1,1,1029.5,148"></path><path id="kity_path_315" fill="none" stroke="gray"></path></g><path id="node_outline4" fill="none" stroke="none" d="M1034.5,134.5h91a5,5,0,0,1,5,5v17a5,5,0,0,1,-5,5h-91a5,5,0,0,1,-5,-5v-17a5,5,0,0,1,5,-5z"></path><g id="node_text4" fill="black"><text id="kity_text_111" text-rendering="inherit" font-size="12" dy=".8em" y="141.5" x="1039.5">非稳定选项</text></g><g id="kity_g_188" style="cursor: pointer;"><path id="kity_path_189" fill="none" stroke="none" d="M1107,139h12a2,2,0,0,1,2,2v13a2,2,0,0,1,-2,2h-12a2,2,0,0,1,-2,-2v-13a2,2,0,0,1,2,-2z"></path><path id="kity_path_190" fill="black" stroke="none" d="M1116,150H1110V149h6L1116,150L1116,150zM1116,148H1110V147h6V148zM1116,146H1110V145h6V146zM1115.5,152H1109V143h8v7.5M1116,153l2,-2V142H1108v11"></path></g></g><g id="minder_node7"><g id="node_expander5" display="none" style="cursor: pointer;"><path id="kity_path_320" fill="white" stroke="gray" d="M888.5,205A6,6,0,1,1,876.5,205A6,6,0,1,1,888.5,205"></path><path id="kity_path_321" fill="none" stroke="gray"></path></g><path id="node_outline6" fill="none" stroke="none" d="M893.5,191.5h122a5,5,0,0,1,5,5v17a5,5,0,0,1,-5,5h-122a5,5,0,0,1,-5,-5v-17a5,5,0,0,1,5,-5z"></path><g id="node_text6" fill="black"><text id="kity_text_115" text-rendering="inherit" font-size="12" dy=".8em" y="198.5" x="898.5">VM的启动和停止</text></g><g id="kity_g_194" style="cursor: pointer;"><path id="kity_path_195" fill="none" stroke="none" d="M997,196h12a2,2,0,0,1,2,2v13a2,2,0,0,1,-2,2h-12a2,2,0,0,1,-2,-2v-13a2,2,0,0,1,2,-2z"></path><path id="kity_path_196" fill="black" stroke="none" d="M1006,207H1000V206h6L1006,207L1006,207zM1006,205H1000V204h6V205zM1006,203H1000V202h6V203zM1005.5,209H999V200h8v7.5M1006,210l2,-2V199H998v11"></path></g></g><g id="minder_node8"><g id="node_expander13" style="cursor: pointer;"><path id="kity_path_344" fill="white" stroke="gray" d="M888.5,360A6,6,0,1,1,876.5,360A6,6,0,1,1,888.5,360"></path><path id="kity_path_345" fill="none" stroke="gray" d="M878,360L887,360"></path></g><path id="node_outline14" fill="none" stroke="none" d="M893.5,346.5h67a5,5,0,0,1,5,5v17a5,5,0,0,1,-5,5h-67a5,5,0,0,1,-5,-5v-17a5,5,0,0,1,5,-5z"></path><g id="node_text14" fill="black"><text id="kity_text_131" text-rendering="inherit" font-size="12" dy=".8em" y="353.5" x="898.5">类加载</text></g><g id="kity_g_212" style="cursor: pointer;"><path id="kity_path_213" fill="none" stroke="none" d="M942,351h12a2,2,0,0,1,2,2v13a2,2,0,0,1,-2,2h-12a2,2,0,0,1,-2,-2v-13a2,2,0,0,1,2,-2z"></path><path id="kity_path_214" fill="black" stroke="none" d="M951,362H945V361h6L951,362L951,362zM951,360H945V359h6V360zM951,358H945V357h6V358zM950.5,364H944V355h8v7.5M951,365l2,-2V354H943v11"></path></g></g><g id="minder_node9"><g id="node_expander8" style="cursor: pointer;"><path id="kity_path_329" fill="white" stroke="gray" d="M1005.5,290A6,6,0,1,1,993.5,290A6,6,0,1,1,1005.5,290"></path><path id="kity_path_330" fill="none" stroke="gray" d="M995,290L1004,290"></path></g><path id="node_outline9" fill="none" stroke="none" d="M1010.5,276.5h55a5,5,0,0,1,5,5v17a5,5,0,0,1,-5,5h-55a5,5,0,0,1,-5,-5v-17a5,5,0,0,1,5,-5z"></path><g id="node_text9" fill="black"><text id="kity_text_121" text-rendering="inherit" font-size="12" dy=".8em" y="283.5" x="1015.5">加载</text></g><g id="kity_g_197" style="cursor: pointer;"><path id="kity_path_198" fill="none" stroke="none" d="M1047,281h12a2,2,0,0,1,2,2v13a2,2,0,0,1,-2,2h-12a2,2,0,0,1,-2,-2v-13a2,2,0,0,1,2,-2z"></path><path id="kity_path_199" fill="black" stroke="none" d="M1056,292H1050V291h6L1056,292L1056,292zM1056,290H1050V289h6V290zM1056,288H1050V287h6V288zM1055.5,294H1049V285h8v7.5M1056,295l2,-2V284H1048v11"></path></g></g><g id="minder_node10"><g id="node_expander7" style="cursor: pointer;"><path id="kity_path_326" fill="white" stroke="gray" d="M1110.5,290.5A6,6,0,1,1,1098.5,290.5A6,6,0,1,1,1110.5,290.5"></path><path id="kity_path_327" fill="none" stroke="gray" d="M1100,290.5L1109,290.5"></path></g><path id="node_outline8" fill="none" stroke="none" d="M1115.5,279.5h58a5,5,0,0,1,5,5v12a5,5,0,0,1,-5,5h-58a5,5,0,0,1,-5,-5v-12a5,5,0,0,1,5,-5z"></path><g id="node_text8" fill="black"><text id="kity_text_119" text-rendering="inherit" font-size="12" dy=".8em" y="284.5" x="1120.5">类加载器</text></g></g><g id="minder_node11"><g id="node_expander6" display="none" style="cursor: pointer;"><path id="kity_path_323" fill="white" stroke="gray" d="M1218.5,291A6,6,0,1,1,1206.5,291A6,6,0,1,1,1218.5,291"></path><path id="kity_path_324" fill="none" stroke="gray"></path></g><path id="node_outline7" fill="none" stroke="none" d="M1223.5,250.5h210a5,5,0,0,1,5,5v71a5,5,0,0,1,-5,5h-210a5,5,0,0,1,-5,-5v-71a5,5,0,0,1,5,-5z"></path><g id="node_text7" fill="black"><text id="kity_text_117" text-rendering="inherit" font-size="12" dy=".8em" y="314.5" x="1304.5">分支主题</text></g><image id="kity_image_266" xmlns:xlink="http://www.w3.org/1999/xlink" xlink:href="http://kityminder-img.cdn.bcebos.com/380adac2bf9b192ef41d19e4da46b251c91e0edf" x="1228.5" y="255.5" width="200" height="54"></image></g><g id="minder_node12"><g id="node_expander10" style="cursor: pointer;"><path id="kity_path_335" fill="white" stroke="gray" d="M1005.5,374A6,6,0,1,1,993.5,374A6,6,0,1,1,1005.5,374"></path><path id="kity_path_336" fill="none" stroke="gray" d="M995,374L1004,374"></path></g><path id="node_outline11" fill="none" stroke="none" d="M1010.5,360.5h55a5,5,0,0,1,5,5v17a5,5,0,0,1,-5,5h-55a5,5,0,0,1,-5,-5v-17a5,5,0,0,1,5,-5z"></path><g id="node_text11" fill="black"><text id="kity_text_125" text-rendering="inherit" font-size="12" dy=".8em" y="367.5" x="1015.5">链接</text></g><g id="kity_g_203" style="cursor: pointer;"><path id="kity_path_204" fill="none" stroke="none" d="M1047,365h12a2,2,0,0,1,2,2v13a2,2,0,0,1,-2,2h-12a2,2,0,0,1,-2,-2v-13a2,2,0,0,1,2,-2z"></path><path id="kity_path_205" fill="black" stroke="none" d="M1056,376H1050V375h6L1056,376L1056,376zM1056,374H1050V373h6V374zM1056,372H1050V371h6V372zM1055.5,378H1049V369h8v7.5M1056,379l2,-2V368H1048v11"></path></g></g><g id="minder_node13"><g id="node_expander9" display="none" style="cursor: pointer;"><path id="kity_path_332" fill="white" stroke="gray" d="M1110.5,374A6,6,0,1,1,1098.5,374A6,6,0,1,1,1110.5,374"></path><path id="kity_path_333" fill="none" stroke="gray"></path></g><path id="node_outline10" fill="none" stroke="none" d="M1115.5,360.5h79a5,5,0,0,1,5,5v17a5,5,0,0,1,-5,5h-79a5,5,0,0,1,-5,-5v-17a5,5,0,0,1,5,-5z"></path><g id="node_text10" fill="black"><text id="kity_text_123" text-rendering="inherit" font-size="12" dy=".8em" y="367.5" x="1120.5">类型安全</text></g><g id="kity_g_200" style="cursor: pointer;"><path id="kity_path_201" fill="none" stroke="none" d="M1176,365h12a2,2,0,0,1,2,2v13a2,2,0,0,1,-2,2h-12a2,2,0,0,1,-2,-2v-13a2,2,0,0,1,2,-2z"></path><path id="kity_path_202" fill="black" stroke="none" d="M1185,376H1179V375h6L1185,376L1185,376zM1185,374H1179V373h6V374zM1185,372H1179V371h6V372zM1184.5,378H1178V369h8v7.5M1185,379l2,-2V368H1177v11"></path></g></g><g id="minder_node14"><g id="node_expander12" style="cursor: pointer;"><path id="kity_path_341" fill="white" stroke="gray" d="M1005.5,431A6,6,0,1,1,993.5,431A6,6,0,1,1,1005.5,431"></path><path id="kity_path_342" fill="none" stroke="gray" d="M995,431L1004,431"></path></g><path id="node_outline13" fill="none" stroke="none" d="M1010.5,417.5h79a5,5,0,0,1,5,5v17a5,5,0,0,1,-5,5h-79a5,5,0,0,1,-5,-5v-17a5,5,0,0,1,5,-5z"></path><g id="node_text13" fill="black"><text id="kity_text_129" text-rendering="inherit" font-size="12" dy=".8em" y="424.5" x="1015.5">类初始化</text></g><g id="kity_g_209" style="cursor: pointer;"><path id="kity_path_210" fill="none" stroke="none" d="M1071,422h12a2,2,0,0,1,2,2v13a2,2,0,0,1,-2,2h-12a2,2,0,0,1,-2,-2v-13a2,2,0,0,1,2,-2z"></path><path id="kity_path_211" fill="black" stroke="none" d="M1080,433H1074V432h6L1080,433L1080,433zM1080,431H1074V430h6V431zM1080,429H1074V428h6V429zM1079.5,435H1073V426h8v7.5M1080,436l2,-2V425H1072v11"></path></g></g><g id="minder_node15"><g id="node_expander11" display="none" style="cursor: pointer;"><path id="kity_path_338" fill="white" stroke="gray" d="M1134.5,431A6,6,0,1,1,1122.5,431A6,6,0,1,1,1134.5,431"></path><path id="kity_path_339" fill="none" stroke="gray"></path></g><path id="node_outline12" fill="none" stroke="none" d="M1139.5,417.5h79a5,5,0,0,1,5,5v17a5,5,0,0,1,-5,5h-79a5,5,0,0,1,-5,-5v-17a5,5,0,0,1,5,-5z"></path><g id="node_text12" fill="black"><text id="kity_text_127" text-rendering="inherit" font-size="12" dy=".8em" y="424.5" x="1144.5">类元数据</text></g><g id="kity_g_206" style="cursor: pointer;"><path id="kity_path_207" fill="none" stroke="none" d="M1200,422h12a2,2,0,0,1,2,2v13a2,2,0,0,1,-2,2h-12a2,2,0,0,1,-2,-2v-13a2,2,0,0,1,2,-2z"></path><path id="kity_path_208" fill="black" stroke="none" d="M1209,433H1203V432h6L1209,433L1209,433zM1209,431H1203V430h6V431zM1209,429H1203V428h6V429zM1208.5,435H1202V426h8v7.5M1209,436l2,-2V425H1201v11"></path></g></g><g id="minder_node16"><g id="node_expander14" display="none" style="cursor: pointer;"><path id="kity_path_347" fill="white" stroke="gray" d="M888.5,487A6,6,0,1,1,876.5,487A6,6,0,1,1,888.5,487"></path><path id="kity_path_348" fill="none" stroke="gray"></path></g><path id="node_outline15" fill="none" stroke="none" d="M893.5,473.5h67a5,5,0,0,1,5,5v17a5,5,0,0,1,-5,5h-67a5,5,0,0,1,-5,-5v-17a5,5,0,0,1,5,-5z"></path><g id="node_text15" fill="black"><text id="kity_text_133" text-rendering="inherit" font-size="12" dy=".8em" y="480.5" x="898.5">解析器</text></g><g id="kity_g_215" style="cursor: pointer;"><path id="kity_path_216" fill="none" stroke="none" d="M942,478h12a2,2,0,0,1,2,2v13a2,2,0,0,1,-2,2h-12a2,2,0,0,1,-2,-2v-13a2,2,0,0,1,2,-2z"></path><path id="kity_path_217" fill="black" stroke="none" d="M951,489H945V488h6L951,489L951,489zM951,487H945V486h6V487zM951,485H945V484h6V485zM950.5,491H944V482h8v7.5M951,492l2,-2V481H943v11"></path></g></g><g id="minder_node17"><g id="node_expander15" display="none" style="cursor: pointer;"><path id="kity_path_350" fill="white" stroke="gray" d="M888.5,544A6,6,0,1,1,876.5,544A6,6,0,1,1,888.5,544"></path><path id="kity_path_351" fill="none" stroke="gray"></path></g><path id="node_outline16" fill="none" stroke="none" d="M893.5,530.5h79a5,5,0,0,1,5,5v17a5,5,0,0,1,-5,5h-79a5,5,0,0,1,-5,-5v-17a5,5,0,0,1,5,-5z"></path><g id="node_text16" fill="black"><text id="kity_text_135" text-rendering="inherit" font-size="12" dy=".8em" y="537.5" x="898.5">异常处理</text></g><g id="kity_g_218" style="cursor: pointer;"><path id="kity_path_219" fill="none" stroke="none" d="M954,535h12a2,2,0,0,1,2,2v13a2,2,0,0,1,-2,2h-12a2,2,0,0,1,-2,-2v-13a2,2,0,0,1,2,-2z"></path><path id="kity_path_220" fill="black" stroke="none" d="M963,546H957V545h6L963,546L963,546zM963,544H957V543h6V544zM963,542H957V541h6V542zM962.5,548H956V539h8v7.5M963,549l2,-2V538H955v11"></path></g></g><g id="minder_node18"><g id="node_expander16" display="none" style="cursor: pointer;"><path id="kity_path_353" fill="white" stroke="gray" d="M888.5,601A6,6,0,1,1,876.5,601A6,6,0,1,1,888.5,601"></path><path id="kity_path_354" fill="none" stroke="gray"></path></g><path id="node_outline17" fill="none" stroke="none" d="M893.5,587.5h79a5,5,0,0,1,5,5v17a5,5,0,0,1,-5,5h-79a5,5,0,0,1,-5,-5v-17a5,5,0,0,1,5,-5z"></path><g id="node_text17" fill="black"><text id="kity_text_137" text-rendering="inherit" font-size="12" dy=".8em" y="594.5" x="898.5">线程同步</text></g><g id="kity_g_221" style="cursor: pointer;"><path id="kity_path_222" fill="none" stroke="none" d="M954,592h12a2,2,0,0,1,2,2v13a2,2,0,0,1,-2,2h-12a2,2,0,0,1,-2,-2v-13a2,2,0,0,1,2,-2z"></path><path id="kity_path_223" fill="black" stroke="none" d="M963,603H957V602h6L963,603L963,603zM963,601H957V600h6V601zM963,599H957V598h6V599zM962.5,605H956V596h8v7.5M963,606l2,-2V595H955v11"></path></g></g><g id="minder_node19"><g id="node_expander17" display="none" style="cursor: pointer;"><path id="kity_path_356" fill="white" stroke="gray" d="M888.5,655.5A6,6,0,1,1,876.5,655.5A6,6,0,1,1,888.5,655.5"></path><path id="kity_path_357" fill="none" stroke="gray"></path></g><path id="node_outline18" fill="none" stroke="none" d="M893.5,644.5h58a5,5,0,0,1,5,5v12a5,5,0,0,1,-5,5h-58a5,5,0,0,1,-5,-5v-12a5,5,0,0,1,5,-5z"></path><g id="node_text18" fill="black"><text id="kity_text_139" text-rendering="inherit" font-size="12" dy=".8em" y="649.5" x="898.5">线程管理</text></g></g><g id="minder_node20"><g id="node_expander18" display="none" style="cursor: pointer;"><path id="kity_path_359" fill="white" stroke="gray" d="M888.5,707.5A6,6,0,1,1,876.5,707.5A6,6,0,1,1,888.5,707.5"></path><path id="kity_path_360" fill="none" stroke="gray"></path></g><path id="node_outline19" fill="none" stroke="none" d="M893.5,696.5h70a5,5,0,0,1,5,5v12a5,5,0,0,1,-5,5h-70a5,5,0,0,1,-5,-5v-12a5,5,0,0,1,5,-5z"></path><g id="node_text19" fill="black"><text id="kity_text_141" text-rendering="inherit" font-size="12" dy=".8em" y="701.5" x="898.5">C++堆管理</text></g></g><g id="minder_node21"><g id="node_expander19" display="none" style="cursor: pointer;"><path id="kity_path_362" fill="white" stroke="gray" d="M888.5,762A6,6,0,1,1,876.5,762A6,6,0,1,1,888.5,762"></path><path id="kity_path_363" fill="none" stroke="gray"></path></g><path id="node_outline20" fill="none" stroke="none" d="M893.5,748.5h108a5,5,0,0,1,5,5v17a5,5,0,0,1,-5,5h-108a5,5,0,0,1,-5,-5v-17a5,5,0,0,1,5,-5z"></path><g id="node_text20" fill="black"><text id="kity_text_143" text-rendering="inherit" font-size="12" dy=".8em" y="755.5" x="898.5">Java本地接口</text></g><g id="kity_g_224" style="cursor: pointer;"><path id="kity_path_225" fill="none" stroke="none" d="M983,753h12a2,2,0,0,1,2,2v13a2,2,0,0,1,-2,2h-12a2,2,0,0,1,-2,-2v-13a2,2,0,0,1,2,-2z"></path><path id="kity_path_226" fill="black" stroke="none" d="M992,764H986V763h6L992,764L992,764zM992,762H986V761h6V762zM992,760H986V759h6V760zM991.5,766H985V757h8v7.5M992,767l2,-2V756H984v11"></path></g></g><g id="minder_node22"><g id="node_expander20" display="none" style="cursor: pointer;"><path id="kity_path_365" fill="white" stroke="gray" d="M888.5,816.5A6,6,0,1,1,876.5,816.5A6,6,0,1,1,888.5,816.5"></path><path id="kity_path_366" fill="none" stroke="gray"></path></g><path id="node_outline21" fill="none" stroke="none" d="M893.5,805.5h107a5,5,0,0,1,5,5v12a5,5,0,0,1,-5,5h-107a5,5,0,0,1,-5,-5v-12a5,5,0,0,1,5,-5z"></path><g id="node_text21" fill="black"><text id="kity_text_145" text-rendering="inherit" font-size="12" dy=".8em" y="810.5" x="898.5">JVM致命错误处理</text></g></g><g id="minder_node23"><g id="node_expander34" style="cursor: pointer;"><path id="kity_path_407" fill="white" stroke="gray" d="M742.5,1413.5A6,6,0,1,1,730.5,1413.5A6,6,0,1,1,742.5,1413.5"></path><path id="kity_path_408" fill="none" stroke="gray" d="M732,1413.5L741,1413.5"></path></g><path id="node_outline35" fill="rgb(238, 243, 246)" stroke="rgb(115, 161, 191)" d="M746.5,1400.5h90a3,3,0,0,1,3,3v20a3,3,0,0,1,-3,3h-90a3,3,0,0,1,-3,-3v-20a3,3,0,0,1,3,-3z" stroke-width="1"></path><g id="node_text35" fill="black"><text id="kity_text_173" text-rendering="inherit" font-size="14" dy=".8em" y="1406.5" x="763.5">垃圾回收</text></g></g><g id="minder_node24"><g id="node_expander28" style="cursor: pointer;"><path id="kity_path_389" fill="white" stroke="gray" d="M879.5,1150A6,6,0,1,1,867.5,1150A6,6,0,1,1,879.5,1150"></path><path id="kity_path_390" fill="none" stroke="gray" d="M869,1150L878,1150"></path></g><path id="node_outline29" fill="none" stroke="none" d="M884.5,1136.5h103a5,5,0,0,1,5,5v17a5,5,0,0,1,-5,5h-103a5,5,0,0,1,-5,-5v-17a5,5,0,0,1,5,-5z"></path><g id="node_text29" fill="black"><text id="kity_text_161" text-rendering="inherit" font-size="12" dy=".8em" y="1143.5" x="889.5">分代垃圾收集</text></g><g id="kity_g_242" style="cursor: pointer;"><path id="kity_path_243" fill="none" stroke="none" d="M969,1141h12a2,2,0,0,1,2,2v13a2,2,0,0,1,-2,2h-12a2,2,0,0,1,-2,-2v-13a2,2,0,0,1,2,-2z"></path><path id="kity_path_244" fill="black" stroke="none" d="M978,1152H972V1151h6L978,1152L978,1152zM978,1150H972V1149h6V1150zM978,1148H972V1147h6V1148zM977.5,1154H971V1145h8v7.5M978,1155l2,-2V1144H970v11"></path></g></g><g id="minder_node25"><g id="node_expander25" style="cursor: pointer;"><path id="kity_path_380" fill="white" stroke="gray" d="M1032.5,1022A6,6,0,1,1,1020.5,1022A6,6,0,1,1,1032.5,1022"></path><path id="kity_path_381" fill="none" stroke="gray" d="M1022,1022L1031,1022"></path></g><path id="node_outline26" fill="none" stroke="none" d="M1037.5,1008.5h67a5,5,0,0,1,5,5v17a5,5,0,0,1,-5,5h-67a5,5,0,0,1,-5,-5v-17a5,5,0,0,1,5,-5z"></path><g id="node_text26" fill="black"><text id="kity_text_155" text-rendering="inherit" font-size="12" dy=".8em" y="1015.5" x="1042.5">新生代</text></g><g id="kity_g_233" style="cursor: pointer;"><path id="kity_path_234" fill="none" stroke="none" d="M1086,1013h12a2,2,0,0,1,2,2v13a2,2,0,0,1,-2,2h-12a2,2,0,0,1,-2,-2v-13a2,2,0,0,1,2,-2z"></path><path id="kity_path_235" fill="black" stroke="none" d="M1095,1024H1089V1023h6L1095,1024L1095,1024zM1095,1022H1089V1021h6V1022zM1095,1020H1089V1019h6V1020zM1094.5,1026H1088V1017h8v7.5M1095,1027l2,-2V1016H1087v11"></path></g></g><g id="minder_node26"><g id="node_expander22" display="none" style="cursor: pointer;"><path id="kity_path_371" fill="white" stroke="gray" d="M1149.5,881A6,6,0,1,1,1137.5,881A6,6,0,1,1,1149.5,881"></path><path id="kity_path_372" fill="none" stroke="gray"></path></g><path id="node_outline23" fill="none" stroke="none" d="M1154.5,867.5h61a5,5,0,0,1,5,5v17a5,5,0,0,1,-5,5h-61a5,5,0,0,1,-5,-5v-17a5,5,0,0,1,5,-5z"></path><g id="node_text23" fill="black"><text id="kity_text_149" text-rendering="inherit" font-size="12" dy=".8em" y="874.5" x="1159.5">Eden</text></g><g id="kity_g_227" style="cursor: pointer;"><path id="kity_path_228" fill="none" stroke="none" d="M1197,872h12a2,2,0,0,1,2,2v13a2,2,0,0,1,-2,2h-12a2,2,0,0,1,-2,-2v-13a2,2,0,0,1,2,-2z"></path><path id="kity_path_229" fill="black" stroke="none" d="M1206,883H1200V882h6L1206,883L1206,883zM1206,881H1200V880h6V881zM1206,879H1200V878h6V879zM1205.5,885H1199V876h8v7.5M1206,886l2,-2V875H1198v11"></path></g></g><g id="minder_node27"><g id="node_expander23" display="none" style="cursor: pointer;"><path id="kity_path_374" fill="white" stroke="gray" d="M1149.5,938A6,6,0,1,1,1137.5,938A6,6,0,1,1,1149.5,938"></path><path id="kity_path_375" fill="none" stroke="gray"></path></g><path id="node_outline24" fill="none" stroke="none" d="M1154.5,924.5h75a5,5,0,0,1,5,5v17a5,5,0,0,1,-5,5h-75a5,5,0,0,1,-5,-5v-17a5,5,0,0,1,5,-5z"></path><g id="node_text24" fill="black"><text id="kity_text_151" text-rendering="inherit" font-size="12" dy=".8em" y="931.5" x="1159.5">Survivor</text></g><g id="kity_g_230" style="cursor: pointer;"><path id="kity_path_231" fill="none" stroke="none" d="M1211,929h12a2,2,0,0,1,2,2v13a2,2,0,0,1,-2,2h-12a2,2,0,0,1,-2,-2v-13a2,2,0,0,1,2,-2z"></path><path id="kity_path_232" fill="black" stroke="none" d="M1220,940H1214V939h6L1220,940L1220,940zM1220,938H1214V937h6V938zM1220,936H1214V935h6V936zM1219.5,942H1213V933h8v7.5M1220,943l2,-2V932H1212v11"></path></g></g><g id="minder_node28"><g id="node_expander24" display="none" style="cursor: pointer;"><path id="kity_path_377" fill="white" stroke="gray" d="M1149.5,1079.5A6,6,0,1,1,1137.5,1079.5A6,6,0,1,1,1149.5,1079.5"></path><path id="kity_path_378" fill="none" stroke="gray"></path></g><path id="node_outline25" fill="none" stroke="none" d="M1154.5,981.5h210a5,5,0,0,1,5,5v186a5,5,0,0,1,-5,5h-210a5,5,0,0,1,-5,-5v-186a5,5,0,0,1,5,-5z"></path><g id="node_text25" fill="black"><text id="kity_text_153" text-rendering="inherit" font-size="12" dy=".8em" y="1160.5" x="1235.5">收集过程</text></g><image id="kity_image_267" xmlns:xlink="http://www.w3.org/1999/xlink" xlink:href="http://kityminder-img.cdn.bcebos.com/c9377e0356e6582aa256cf525c2276f49285a60c" x="1159.5" y="986.5" width="200" height="169"></image></g><g id="minder_node29"><g id="node_expander26" display="none" style="cursor: pointer;"><path id="kity_path_383" fill="white" stroke="gray" d="M1032.5,1221A6,6,0,1,1,1020.5,1221A6,6,0,1,1,1032.5,1221"></path><path id="kity_path_384" fill="none" stroke="gray"></path></g><path id="node_outline27" fill="none" stroke="none" d="M1037.5,1207.5h67a5,5,0,0,1,5,5v17a5,5,0,0,1,-5,5h-67a5,5,0,0,1,-5,-5v-17a5,5,0,0,1,5,-5z"></path><g id="node_text27" fill="black"><text id="kity_text_157" text-rendering="inherit" font-size="12" dy=".8em" y="1214.5" x="1042.5">老年代</text></g><g id="kity_g_236" style="cursor: pointer;"><path id="kity_path_237" fill="none" stroke="none" d="M1086,1212h12a2,2,0,0,1,2,2v13a2,2,0,0,1,-2,2h-12a2,2,0,0,1,-2,-2v-13a2,2,0,0,1,2,-2z"></path><path id="kity_path_238" fill="black" stroke="none" d="M1095,1223H1089V1222h6L1095,1223L1095,1223zM1095,1221H1089V1220h6V1221zM1095,1219H1089V1218h6V1219zM1094.5,1225H1088V1216h8v7.5M1095,1226l2,-2V1215H1087v11"></path></g></g><g id="minder_node30"><g id="node_expander27" display="none" style="cursor: pointer;"><path id="kity_path_386" fill="white" stroke="gray" d="M1032.5,1278A6,6,0,1,1,1020.5,1278A6,6,0,1,1,1032.5,1278"></path><path id="kity_path_387" fill="none" stroke="gray"></path></g><path id="node_outline28" fill="none" stroke="none" d="M1037.5,1264.5h67a5,5,0,0,1,5,5v17a5,5,0,0,1,-5,5h-67a5,5,0,0,1,-5,-5v-17a5,5,0,0,1,5,-5z"></path><g id="node_text28" fill="black"><text id="kity_text_159" text-rendering="inherit" font-size="12" dy=".8em" y="1271.5" x="1042.5">永久代</text></g><g id="kity_g_239" style="cursor: pointer;"><path id="kity_path_240" fill="none" stroke="none" d="M1086,1269h12a2,2,0,0,1,2,2v13a2,2,0,0,1,-2,2h-12a2,2,0,0,1,-2,-2v-13a2,2,0,0,1,2,-2z"></path><path id="kity_path_241" fill="black" stroke="none" d="M1095,1280H1089V1279h6L1095,1280L1095,1280zM1095,1278H1089V1277h6V1278zM1095,1276H1089V1275h6V1276zM1094.5,1282H1088V1273h8v7.5M1095,1283l2,-2V1272H1087v11"></path></g></g><g id="minder_node31"><g id="node_expander29" display="none" style="cursor: pointer;"><path id="kity_path_392" fill="white" stroke="gray" d="M879.5,1335A6,6,0,1,1,867.5,1335A6,6,0,1,1,879.5,1335"></path><path id="kity_path_393" fill="none" stroke="gray"></path></g><path id="node_outline30" fill="none" stroke="none" d="M884.5,1321.5h121a5,5,0,0,1,5,5v17a5,5,0,0,1,-5,5h-121a5,5,0,0,1,-5,-5v-17a5,5,0,0,1,5,-5z"></path><g id="node_text30" fill="black"><text id="kity_text_163" text-rendering="inherit" font-size="12" dy=".8em" y="1328.5" x="889.5">Serial垃圾收集器</text></g><g id="kity_g_245" style="cursor: pointer;"><path id="kity_path_246" fill="none" stroke="none" d="M987,1326h12a2,2,0,0,1,2,2v13a2,2,0,0,1,-2,2h-12a2,2,0,0,1,-2,-2v-13a2,2,0,0,1,2,-2z"></path><path id="kity_path_247" fill="black" stroke="none" d="M996,1337H990V1336h6L996,1337L996,1337zM996,1335H990V1334h6V1335zM996,1333H990V1332h6V1333zM995.5,1339H989V1330h8v7.5M996,1340l2,-2V1329H988v11"></path></g></g><g id="minder_node32"><g id="node_expander31" style="cursor: pointer;"><path id="kity_path_398" fill="white" stroke="gray" d="M879.5,1480A6,6,0,1,1,867.5,1480A6,6,0,1,1,879.5,1480"></path><path id="kity_path_399" fill="none" stroke="gray" d="M869,1480L878,1480"></path></g><path id="node_outline32" fill="none" stroke="none" d="M884.5,1466.5h133a5,5,0,0,1,5,5v17a5,5,0,0,1,-5,5h-133a5,5,0,0,1,-5,-5v-17a5,5,0,0,1,5,-5z"></path><g id="node_text32" fill="black"><text id="kity_text_167" text-rendering="inherit" font-size="12" dy=".8em" y="1473.5" x="889.5">Parallel垃圾收集器</text></g><g id="kity_g_248" style="cursor: pointer;"><path id="kity_path_249" fill="none" stroke="none" d="M999,1471h12a2,2,0,0,1,2,2v13a2,2,0,0,1,-2,2h-12a2,2,0,0,1,-2,-2v-13a2,2,0,0,1,2,-2z"></path><path id="kity_path_250" fill="black" stroke="none" d="M1008,1482H1002V1481h6L1008,1482L1008,1482zM1008,1480H1002V1479h6V1480zM1008,1478H1002V1477h6V1478zM1007.5,1484H1001V1475h8v7.5M1008,1485l2,-2V1474H1000v11"></path></g></g><g id="minder_node33"><g id="node_expander30" display="none" style="cursor: pointer;"><path id="kity_path_395" fill="white" stroke="gray" d="M1062.5,1480A6,6,0,1,1,1050.5,1480A6,6,0,1,1,1062.5,1480"></path><path id="kity_path_396" fill="none" stroke="gray"></path></g><path id="node_outline31" fill="none" stroke="none" d="M1067.5,1378.5h210a5,5,0,0,1,5,5v193a5,5,0,0,1,-5,5h-210a5,5,0,0,1,-5,-5v-193a5,5,0,0,1,5,-5z"></path><g id="node_text31" fill="black"><text id="kity_text_165" text-rendering="inherit" font-size="12" dy=".8em" y="1564.5" x="1148.5">收集方法</text></g><image id="kity_image_268" xmlns:xlink="http://www.w3.org/1999/xlink" xlink:href="http://kityminder-img.cdn.bcebos.com/629e55c4e195698a56f8cf75f30e6b700281fb49" x="1072.5" y="1383.5" width="200" height="176"></image></g><g id="minder_node34"><g id="node_expander32" display="none" style="cursor: pointer;"><path id="kity_path_401" fill="white" stroke="gray" d="M879.5,1625A6,6,0,1,1,867.5,1625A6,6,0,1,1,879.5,1625"></path><path id="kity_path_402" fill="none" stroke="gray"></path></g><path id="node_outline33" fill="none" stroke="none" d="M884.5,1611.5h175a5,5,0,0,1,5,5v17a5,5,0,0,1,-5,5h-175a5,5,0,0,1,-5,-5v-17a5,5,0,0,1,5,-5z"></path><g id="node_text33" fill="black"><text id="kity_text_169" text-rendering="inherit" font-size="12" dy=".8em" y="1618.5" x="889.5">并行标记清除(CMS)收集器</text></g><g id="kity_g_251" style="cursor: pointer;"><path id="kity_path_252" fill="none" stroke="none" d="M1041,1616h12a2,2,0,0,1,2,2v13a2,2,0,0,1,-2,2h-12a2,2,0,0,1,-2,-2v-13a2,2,0,0,1,2,-2z"></path><path id="kity_path_253" fill="black" stroke="none" d="M1050,1627H1044V1626h6L1050,1627L1050,1627zM1050,1625H1044V1624h6V1625zM1050,1623H1044V1622h6V1623zM1049.5,1629H1043V1620h8v7.5M1050,1630l2,-2V1619H1042v11"></path></g></g><g id="minder_node35"><g id="node_expander33" display="none" style="cursor: pointer;"><path id="kity_path_404" fill="white" stroke="gray" d="M879.5,1679.5A6,6,0,1,1,867.5,1679.5A6,6,0,1,1,879.5,1679.5"></path><path id="kity_path_405" fill="none" stroke="gray"></path></g><path id="node_outline34" fill="none" stroke="none" d="M884.5,1668.5h87a5,5,0,0,1,5,5v12a5,5,0,0,1,-5,5h-87a5,5,0,0,1,-5,-5v-12a5,5,0,0,1,5,-5z"></path><g id="node_text34" fill="black"><text id="kity_text_171" text-rendering="inherit" font-size="12" dy=".8em" y="1673.5" x="889.5">G1垃圾收集器</text></g></g><g id="minder_node36"><g id="node_expander38" style="cursor: pointer;"><path id="kity_path_419" fill="white" stroke="gray" d="M308.5,933.5A6,6,0,1,1,296.5,933.5A6,6,0,1,1,308.5,933.5"></path><path id="kity_path_420" fill="none" stroke="gray" d="M298,933.5L307,933.5"></path></g><path id="node_outline39" fill="rgb(238, 243, 246)" stroke="rgb(115, 161, 191)" d="M200.5,920.5h92a3,3,0,0,1,3,3v20a3,3,0,0,1,-3,3h-92a3,3,0,0,1,-3,-3v-20a3,3,0,0,1,3,-3z" stroke-width="1"></path><g id="node_text39" fill="black"><text id="kity_text_181" text-rendering="inherit" font-size="14" dy=".8em" y="926.5" x="217.5">JIT编译器</text></g></g><g id="minder_node37"><g id="node_expander35" display="none" style="cursor: pointer;"><path id="kity_path_410" fill="white" stroke="gray" d="M169.5,877A6,6,0,1,1,157.5,877A6,6,0,1,1,169.5,877"></path><path id="kity_path_411" fill="none" stroke="gray"></path></g><path id="node_outline36" fill="none" stroke="none" d="M25.5,863.5h127a5,5,0,0,1,5,5v17a5,5,0,0,1,-5,5h-127a5,5,0,0,1,-5,-5v-17a5,5,0,0,1,5,-5z"></path><g id="node_text36" fill="black"><text id="kity_text_175" text-rendering="inherit" font-size="12" dy=".8em" y="870.5" x="30.5">类型继承关系分析</text></g><g id="kity_g_254" style="cursor: pointer;"><path id="kity_path_255" fill="none" stroke="none" d="M134,868h12a2,2,0,0,1,2,2v13a2,2,0,0,1,-2,2h-12a2,2,0,0,1,-2,-2v-13a2,2,0,0,1,2,-2z"></path><path id="kity_path_256" fill="black" stroke="none" d="M143,879H137V878h6L143,879L143,879zM143,877H137V876h6V877zM143,875H137V874h6V875zM142.5,881H136V872h8v7.5M143,882l2,-2V871H135v11"></path></g></g><g id="minder_node38"><g id="node_expander36" display="none" style="cursor: pointer;"><path id="kity_path_413" fill="white" stroke="gray" d="M169.5,934A6,6,0,1,1,157.5,934A6,6,0,1,1,169.5,934"></path><path id="kity_path_414" fill="none" stroke="gray"></path></g><path id="node_outline37" fill="none" stroke="none" d="M73.5,920.5h79a5,5,0,0,1,5,5v17a5,5,0,0,1,-5,5h-79a5,5,0,0,1,-5,-5v-17a5,5,0,0,1,5,-5z"></path><g id="node_text37" fill="black"><text id="kity_text_177" text-rendering="inherit" font-size="12" dy=".8em" y="927.5" x="78.5">编译策略</text></g><g id="kity_g_257" style="cursor: pointer;"><path id="kity_path_258" fill="none" stroke="none" d="M134,925h12a2,2,0,0,1,2,2v13a2,2,0,0,1,-2,2h-12a2,2,0,0,1,-2,-2v-13a2,2,0,0,1,2,-2z"></path><path id="kity_path_259" fill="black" stroke="none" d="M143,936H137V935h6L143,936L143,936zM143,934H137V933h6V934zM143,932H137V931h6V932zM142.5,938H136V929h8v7.5M143,939l2,-2V928H135v11"></path></g></g><g id="minder_node39"><g id="node_expander37" display="none" style="cursor: pointer;"><path id="kity_path_416" fill="white" stroke="gray" d="M169.5,991A6,6,0,1,1,157.5,991A6,6,0,1,1,169.5,991"></path><path id="kity_path_417" fill="none" stroke="gray"></path></g><path id="node_outline38" fill="none" stroke="none" d="M85.5,977.5h67a5,5,0,0,1,5,5v17a5,5,0,0,1,-5,5h-67a5,5,0,0,1,-5,-5v-17a5,5,0,0,1,5,-5z"></path><g id="node_text38" fill="black"><text id="kity_text_179" text-rendering="inherit" font-size="12" dy=".8em" y="984.5" x="90.5">逆优化</text></g><g id="kity_g_260" style="cursor: pointer;"><path id="kity_path_261" fill="none" stroke="none" d="M134,982h12a2,2,0,0,1,2,2v13a2,2,0,0,1,-2,2h-12a2,2,0,0,1,-2,-2v-13a2,2,0,0,1,2,-2z"></path><path id="kity_path_262" fill="black" stroke="none" d="M143,993H137V992h6L143,993L143,993zM143,991H137V990h6V991zM143,989H137V988h6V989zM142.5,995H136V986h8v7.5M143,996l2,-2V985H135v11"></path></g></g></g></g></svg>